<svg xmlns="http://www.w3.org/2000/svg" xmlns:xlink="http://www.w3.org/1999/xlink" viewBox="0 0 447.1 160.7"><path d="M106.2 84.1c-9.2 0-15.7 7.4-15.7 16.4v.1c0 9.6 7 16.3 16.5 16.3 5.7 0 10-2.2 12.9-5.9l-5.1-4.5c-2.5 2.3-4.7 3.2-7.7 3.2-4 0-6.9-2.1-7.7-6.2h22c.1-.8.1-1.6.1-2.4.1-8.8-4.8-17-15.3-17zM99.3 98c.7-4.1 3.1-6.7 6.9-6.7 3.8 0 6.1 2.7 6.7 6.7H99.3zm27.9-24.7h9v42.9h-9zm16.3 0h9v42.9h-9zm35.9 29c0 4.2-2.2 6.4-5.6 6.4-3.4 0-5.4-2.2-5.4-6.4V84.7h-9v20.4c0 7.2 4 11.7 10.7 11.7 4.5 0 7.2-2.4 9.3-5.1v4.5h9V84.7h-9v17.6zm29.7-5.1c-3.4-1.2-6.4-2-6.4-3.8v-.1c0-1.2 1.1-2.2 3.3-2.2 2.3 0 5.4 1.1 8.6 2.9l3.4-6.2c-3.4-2.3-7.8-3.6-11.8-3.6-6.4 0-11.6 3.6-11.6 10v.1c0 6.1 5 8.2 9.5 9.5 3.5 1.1 6.6 1.7 6.6 3.6v.1c0 1.4-1.2 2.4-3.8 2.4-3 0-6.6-1.3-10-3.8l-3.8 5.9c4.2 3.3 9.2 4.8 13.6 4.8 6.8 0 12.1-3.2 12.1-10.2v-.1c-.1-5.7-5.3-7.8-9.7-9.3zm51.6 1.5c0 6.5-3.4 9.9-8.9 9.9s-8.9-3.5-8.9-10.2V73.3h-9.1v25.3c0 12.1 6.8 18.3 17.9 18.3 11.1 0 18.1-6.1 18.1-18.6v-25h-9.1v25.4zm27-22h-9v8.1h-3.8v7.6h3.8v14.9c0 7.3 3.7 9.5 9.2 9.5 3 0 5.2-.7 7.1-1.8v-7.2c-1.3.7-2.8 1.1-4.4 1.1-2 0-2.9-1-2.9-3.1V92.4h7.4v-7.6h-7.4v-8.1zm13.3 8h9v31.5h-9zm-.3-11.4h9.4v7.9h-9.4zm16.6 0h9v42.9h-9zm16.3 11.4h9v31.5h-9zm-.2-11.4h9.4v7.9h-9.4zm26.7 3.4h-9v8.1h-3.8v7.6h3.8v14.9c0 7.3 3.7 9.5 9.2 9.5 3 0 5.2-.7 7.1-1.8v-7.2c-1.3.7-2.8 1.1-4.4 1.1-2 0-2.9-1-2.9-3.1V92.4h7.4v-7.6h-7.4v-8.1zm13.3 8h9v31.5h-9zm-.2-11.4h9.4v7.9h-9.4zm30.3 10.8c-9.2 0-15.7 7.4-15.7 16.4v.1c0 9.6 7 16.3 16.5 16.3 5.7 0 10-2.2 12.9-5.9l-5.1-4.5c-2.5 2.3-4.7 3.2-7.7 3.2-4 0-6.8-2.1-7.7-6.2h22c.1-.8.1-1.6.1-2.4.1-8.8-4.8-17-15.3-17zM396.6 98c.7-4.1 3.1-6.7 6.9-6.7 3.8 0 6.1 2.7 6.7 6.7h-13.6zm41-.8c-3.4-1.2-6.4-2-6.4-3.8v-.1c0-1.2 1.1-2.2 3.3-2.2 2.3 0 5.4 1.1 8.6 2.9l3.4-6.2c-3.4-2.3-7.8-3.6-11.8-3.6-6.4 0-11.6 3.6-11.6 10v.1c0 6.1 5 8.2 9.5 9.5 3.5 1.1 6.6 1.7 6.6 3.6v.1c0 1.4-1.2 2.4-3.8 2.4-3 0-6.6-1.3-10-3.8l-3.8 5.9c4.2 3.3 9.2 4.8 13.6 4.8 6.8 0 12.1-3.2 12.1-10.2v-.1c-.2-5.7-5.3-7.8-9.7-9.3zM92.4 73.3H64.6l-8.4 8.4h14.6v34.6h9.1V81.7h12.5z"/><path fill="#046A38" d="M187.5 132h-4.2v5H181v3.6h2.3v9.6c0 4 2.2 5.3 5.2 5.3 1.6 0 2.7-.3 3.7-.9v-3.4c-.8.4-1.7.6-2.6.6-1.4 0-2.2-.7-2.2-2.3v-8.9h4.9V137h-4.9v-5zm8.5 2.2h4.5v-4H196v4zm-25.8 2.6c-2.9 0-4.8.6-6.9 1.5l1.1 3.3c1.7-.7 3.2-1.1 5.2-1.1 2.9 0 4.5 1.4 4.5 4v.4c-1.4-.4-2.9-.8-4.9-.8-4.4 0-7.5 1.9-7.5 5.8v.1c0 3.6 3.1 5.6 6.5 5.6 2.8 0 4.7-1.2 5.9-2.6v2.3h4.1v-10.8c0-2.4-.6-4.3-2-5.6-1.2-1.4-3.3-2.1-6-2.1zm4 11.8c0 2.3-2.1 3.9-4.8 3.9-2 0-3.5-1-3.5-2.8v-.1c0-1.9 1.6-3 4.3-3 1.7 0 3.1.3 4.1.7v1.3zm21.9 6.6h4.2V137h-4.2v18.2zm-65-18.6c-5.6 0-9.7 4.3-9.7 9.5v.1c0 5.2 4.1 9.4 9.6 9.4 5.6 0 9.7-4.3 9.7-9.5v-.1c0-5.1-4.1-9.4-9.6-9.4zm5.5 9.6c0 3.1-2.1 5.7-5.5 5.7-3.2 0-5.5-2.6-5.5-5.8v-.1c0-3.2 2.1-5.8 5.5-5.8 3.2.1 5.5 2.7 5.5 6zm-46.3-9.6c-2.8 0-4.5 1.5-5.7 3.2V137h-4.2v18.2h4.2V145c0-2.8 1.7-4.5 4.1-4.5 2.5 0 3.9 1.6 3.9 4.4v10.3h4.2v-11.6c0-4.2-2.4-7-6.5-7zm-19.6 18.6h4.2v-24.1h-4.2v24.1zm40.6-18.6c-2.8 0-4.5 1.5-5.7 3.2V137h-4.2v18.2h4.2V145c0-2.8 1.7-4.5 4.1-4.5 2.5 0 3.9 1.6 3.9 4.4v10.3h4.2v-11.6c0-4.2-2.4-7-6.5-7zm39.8 13.8l-4.9-13.3h-4.5l7.5 18.3h3.7l7.4-18.3h-4.4l-4.8 13.3zm173.5 4.8h4.2V137h-4.2v18.2zm75-14.1V137h-4.2v18.2h4.2v-6.9c0-4.8 2.5-7.2 6.2-7.2h.2v-4.4c-3.1-.2-5.2 1.7-6.4 4.4zm-16.6-4.5c-5.2 0-8.9 4.3-8.9 9.5v.1c0 5.6 4.1 9.4 9.3 9.4 3.3 0 5.7-1.3 7.4-3.4l-2.4-2.2c-1.4 1.4-2.9 2.2-4.9 2.2-2.7 0-4.8-1.7-5.2-4.6h13.3c0-.4.1-.8.1-1.2 0-5.2-3-9.8-8.7-9.8zm-4.8 8.2c.4-2.8 2.2-4.8 4.7-4.8 2.8 0 4.3 2.1 4.6 4.8h-9.3zm-164.3-8.2c-5.6 0-9.7 4.3-9.7 9.5v.1c0 5.2 4.1 9.4 9.6 9.4 5.6 0 9.7-4.3 9.7-9.5v-.1c0-5.1-4.1-9.4-9.6-9.4zm5.5 9.6c0 3.1-2.1 5.7-5.5 5.7-3.2 0-5.5-2.6-5.5-5.8v-.1c0-3.2 2.1-5.8 5.5-5.8 3.2.1 5.5 2.7 5.5 6zm143.2-9.6c-5.2 0-8.9 4.3-8.9 9.5v.1c0 5.6 4.1 9.4 9.3 9.4 3.3 0 5.7-1.3 7.4-3.4L368 150c-1.4 1.4-2.9 2.2-4.9 2.2-2.7 0-4.8-1.7-5.2-4.6h13.3c0-.4.1-.8.1-1.2 0-5.2-2.9-9.8-8.7-9.8zm-4.8 8.2c.4-2.8 2.2-4.8 4.7-4.8 2.8 0 4.3 2.1 4.6 4.8h-9.3zm59-8.2c-5.2 0-8.9 4.3-8.9 9.5v.1c0 5.6 4.1 9.4 9.3 9.4 3.3 0 5.7-1.3 7.4-3.4l-2.4-2.2c-1.4 1.4-2.9 2.2-4.9 2.2-2.7 0-4.8-1.7-5.2-4.6h13.3c0-.4.1-.8.1-1.2 0-5.2-2.9-9.8-8.7-9.8zm-4.7 8.2c.4-2.8 2.2-4.8 4.7-4.8 2.8 0 4.3 2.1 4.6 4.8h-9.3zm30.9-14.7v9.8c-1.3-1.7-3.2-3.2-6.2-3.2-4.3 0-8.4 3.4-8.4 9.4v.1c0 6 4.2 9.4 8.4 9.4 3 0 4.8-1.5 6.2-3.4v3h4.2v-25.1H443zm.1 16c0 3.5-2.5 5.8-5.3 5.8s-5.2-2.3-5.2-5.8v-.1c0-3.6 2.4-5.8 5.2-5.8 2.8 0 5.3 2.3 5.3 5.9zm-99.5-9.5c-2.8 0-4.5 1.5-5.7 3.2V137h-4.2v18.2h4.2V145c0-2.8 1.7-4.5 4.1-4.5 2.5 0 3.9 1.6 3.9 4.4v10.3h4.2v-11.6c0-4.2-2.4-7-6.5-7zm-106.5 0c-2.8 0-4.5 1.5-5.7 3.2V137h-4.2v18.2h4.2V145c0-2.8 1.7-4.5 4.1-4.5 2.5 0 3.9 1.6 3.9 4.4v10.3h4.2v-11.6c0-4.2-2.4-7-6.5-7zm87.4-2.4h4.5v-4h-4.5v4zM263 145h12v-3.8h-12v-6.3h13.6v-3.8h-17.8v24.1h18v-3.8H263V145zm27.9-8.4c-2.8 0-4.5 1.5-5.7 3.2V137H281v18.2h4.2V145c0-2.8 1.7-4.5 4.1-4.5 2.5 0 3.9 1.6 3.9 4.4v10.3h4.2v-11.6c-.1-4.2-2.4-7-6.5-7zm24.7 3.1c-1.4-1.7-3.3-3.1-6.4-3.1-4.2 0-8.3 3.2-8.3 8.5v.1c0 5.3 4 8.5 8.3 8.5 3 0 4.9-1.4 6.4-3.3v1.4c0 3.6-2 5.5-5.7 5.5-2.5 0-4.5-.7-6.5-1.9l-1.5 3.1c2.3 1.4 5.1 2.2 8.1 2.2 3.3 0 5.8-.8 7.5-2.4 1.5-1.5 2.3-3.8 2.3-6.8V137h-4.2v2.7zm0 5.5c0 3-2.4 5-5.3 5s-5.2-2-5.2-5v-.1c0-3 2.3-5 5.2-5 2.9.1 5.3 2.1 5.3 5.1z"/><defs><path id="a" d="M70.7 0L0 71v46l70.7-71V14.1z"/></defs><linearGradient id="b" gradientUnits="userSpaceOnUse" x1="35.332" y1="0" x2="35.332" y2="116.965"><stop offset="0" stop-color="#97d700"/><stop offset=".127" stop-color="#8ed003"/><stop offset=".335" stop-color="#76be0d"/><stop offset=".597" stop-color="#4ea11c"/><stop offset=".901" stop-color="#177831"/><stop offset="1" stop-color="#046a38"/></linearGradient><use xlink:href="#a" overflow="visible" fill="url(#b)"/></svg>